<svg xmlns="http://www.w3.org/2000/svg" xmlns:xlink="http://www.w3.org/1999/xlink" version="1.1" width="1000" height="1000" viewBox="0 0 1000 1000" xml:space="preserve">
<desc>Created with Fabric.js 3.5.0</desc>
<defs>
</defs>
<rect x="0" y="0" width="100%" height="100%" fill="#000000"/>
<g transform="matrix(2.2918 0 0 2.2918 499.9987 499.999)" id="754612">
<path style="stroke: none; stroke-width: 1; stroke-dasharray: none; stroke-linecap: butt; stroke-dashoffset: 0; stroke-linejoin: miter; stroke-miterlimit: 4; is-custom-font: none; font-file-url: none; fill: rgb(238,242,243); fill-rule: nonzero; opacity: 1;" vector-effect="non-scaling-stroke" transform=" translate(-338.335, -280.003)" d="m 466.67 116.67 h -256.67 c -18.566 0 -36.371 7.375 -49.496 20.5 c -13.129 13.129 -20.504 30.934 -20.504 49.5 v 186.67 v -0.003907 c 0 18.566 7.375 36.371 20.504 49.5 c 13.125 13.125 30.93 20.5 49.496 20.5 h 256.67 c 18.562 0 36.367 -7.375 49.496 -20.5 c 13.129 -13.129 20.504 -30.934 20.504 -49.5 v -186.66 c 0 -18.566 -7.375 -36.371 -20.504 -49.5 c -13.129 -13.125 -30.934 -20.5 -49.496 -20.5 z m -210 233.33 c 0 8.3359 -4.4492 16.039 -11.668 20.207 s -16.113 4.168 -23.332 0 s -11.668 -11.871 -11.668 -20.207 v -140 c 0 -8.3359 4.4492 -16.039 11.668 -20.207 s 16.113 -4.168 23.332 0 s 11.668 11.871 11.668 20.207 z m 70 -23.332 c 0 8.3359 -4.4492 16.039 -11.668 20.207 s -16.113 4.168 -23.332 0 s -11.668 -11.871 -11.668 -20.207 v -116.67 c 0 -8.3359 4.4492 -16.039 11.668 -20.207 s 16.113 -4.168 23.332 0 s 11.668 11.871 11.668 20.207 z m 70 23.332 c 0 8.3359 -4.4492 16.039 -11.668 20.207 s -16.113 4.168 -23.332 0 s -11.668 -11.871 -11.668 -20.207 v -140 c 0 -8.3359 4.4492 -16.039 11.668 -20.207 s 16.113 -4.168 23.332 0 s 11.668 11.871 11.668 20.207 z m 70 -70 c 0 8.3359 -4.4492 16.039 -11.668 20.207 s -16.113 4.168 -23.332 0 s -11.668 -11.871 -11.668 -20.207 v -70 c 0 -8.3359 4.4492 -16.039 11.668 -20.207 s 16.113 -4.168 23.332 0 s 11.668 11.871 11.668 20.207 z" stroke-linecap="round"/>
</g>
</svg>